<svg width="88" height="105" viewBox="0 0 88 105" fill="none" xmlns="http://www.w3.org/2000/svg">
<path d="M1.16698 17.2232C13.4489 1.45465 35.4028 -5.31428 53.3651 5.06988C66.3379 12.608 73.0162 28.838 68.9478 42.8374C79.5409 56.9906 80.2318 76.9128 77.4683 94.5274C79.1571 92.9121 80.7691 91.2199 82.4579 89.6046C85.3748 86.7586 89.827 91.2199 86.91 94.0659C83.7628 97.1427 80.6156 100.219 77.3916 103.219C75.8564 104.681 73.707 104.219 72.5556 102.604C69.4851 98.2196 66.1844 93.7582 63.728 88.9892C62.8068 87.1431 65.0329 85.374 66.5681 86.7585C68.9478 88.9123 71.0971 91.2968 73.1697 93.7582C75.8564 78.2205 76.0099 60.9904 67.1055 47.4526C66.1076 49.4525 64.8026 51.4524 63.2674 53.2216C52.8278 65.4518 26.4984 68.4517 20.0504 50.1448C16.9032 41.2221 23.0441 32.1456 31.2576 28.9919C40.2388 25.5305 50.5249 27.6842 58.3546 32.8378C61.2716 34.7608 63.728 36.8377 65.954 39.2222C68.2569 27.8381 62.7301 14.9925 52.6742 8.53126C35.9401 -2.23749 14.8306 4.14684 2.77897 18.8385C1.85782 20.1461 0.169078 18.4539 1.16698 17.2232ZM46.2262 32.2225C37.8592 30.3764 26.6519 32.7609 23.8885 42.1451C21.2019 51.0678 29.7224 57.7598 37.7057 59.1444C45.5354 60.452 53.9024 57.5291 59.4293 51.9139C61.7321 49.6063 63.4209 46.9141 64.6491 44.145C59.8131 38.3761 53.5186 33.8378 46.2262 32.2225Z" fill="#8681FF"/>
</svg>
