<svg width="197" height="330" viewBox="0 0 197 330" fill="none" xmlns="http://www.w3.org/2000/svg">
<g clip-path="url(#clip0_2262_225)">
<path opacity="0.2" d="M302 249.01L296.892 251.811L226.571 290.309L210.073 299.347V277.158L216.432 273.671L281.666 237.948V182.99L302 193.643V249.01ZM0.34747 193.063V249.01L5.4553 251.811L75.7693 290.309L92.2672 299.32V277.158L85.9363 273.671H85.8737L20.6536 237.988V182.41L0.34747 193.063ZM206.557 50.6734C206.429 50.0213 206.366 49.3591 206.369 48.6958C206.372 45.3377 207.698 42.102 210.088 39.6243C212.477 37.1466 215.757 35.6061 219.283 35.3055C222.809 35.0048 226.326 35.9657 229.143 37.9994C231.96 40.0331 233.873 42.9925 234.507 46.2963L246.405 53.0202L246.648 53.1718L247.343 53.5476L256.468 58.5443L297.469 80.9904L301.993 83.469V178.066L288.449 170.643L225.473 136.153C223.916 136.698 222.268 136.972 220.609 136.964C217.896 136.97 215.238 136.238 212.951 134.855C210.663 133.472 208.841 131.496 207.701 129.162C206.56 126.827 206.149 124.231 206.516 121.681C206.884 119.132 208.013 116.735 209.772 114.776C211.531 112.817 213.844 111.377 216.439 110.627C219.034 109.876 221.801 109.847 224.413 110.543C227.025 111.239 229.371 112.63 231.175 114.552C232.979 116.474 234.164 118.846 234.591 121.387L283.932 148.375V93.3374L260.304 80.4367L233.152 65.5649L225.404 61.3196C223.43 61.9988 221.321 62.2532 219.23 62.0645C217.14 61.8758 215.12 61.2487 213.316 60.2286C211.512 59.2085 209.97 57.8208 208.801 56.166C207.632 54.5112 206.866 52.6306 206.557 50.6602V50.6734ZM226.891 123.516C226.89 122.333 226.518 121.178 225.824 120.196C225.129 119.214 224.143 118.449 222.99 117.999C221.837 117.549 220.569 117.434 219.347 117.669C218.125 117.903 217.004 118.477 216.125 119.316C215.247 120.155 214.652 121.223 214.414 122.384C214.176 123.545 214.307 124.747 214.791 125.837C215.274 126.927 216.087 127.857 217.128 128.508C218.169 129.159 219.39 129.503 220.636 129.495C222.301 129.485 223.894 128.849 225.066 127.727C226.239 126.605 226.895 125.095 226.891 123.516ZM214.25 48.6826C214.253 49.8627 214.624 51.0156 215.317 51.9957C216.01 52.9759 216.993 53.7393 218.143 54.1897C219.293 54.6401 220.558 54.7573 221.778 54.5264C222.998 54.2955 224.118 53.727 224.998 52.8926C225.878 52.0581 226.477 50.9951 226.721 49.8378C226.964 48.6805 226.84 47.4807 226.366 46.3899C225.891 45.2992 225.086 44.3663 224.053 43.709C223.019 43.0518 221.804 42.6996 220.56 42.697C219.732 42.6961 218.911 42.8501 218.146 43.1502C217.38 43.4503 216.685 43.8906 216.099 44.4459C215.513 45.0012 215.048 45.6606 214.73 46.3864C214.413 47.1122 214.25 47.8969 214.25 48.6826ZM145.93 327.528L107.5 306.493L102.969 304.021V152.462C100.186 150.161 98.4587 146.921 98.1546 143.431C97.8504 139.941 98.9934 136.476 101.341 133.773C103.688 131.07 107.054 129.343 110.723 128.957C114.392 128.572 118.075 129.559 120.989 131.71L121.072 131.664V131.763C122.746 133.025 124.097 134.628 125.026 136.455C125.955 138.281 126.437 140.282 126.437 142.31C126.437 144.338 125.955 146.339 125.026 148.166C124.097 149.992 122.746 151.596 121.072 152.857V294.113L150.454 310.191L179.809 294.113V35.4193L151.198 19.7433L18.0684 92.6584V147.59L145.875 77.6087L150.371 75.163L154.874 77.6087L156.626 78.5909C158.738 78.0142 160.962 77.9097 163.124 78.2857C165.285 78.6617 167.326 79.508 169.085 80.758C170.843 82.0081 172.273 83.6279 173.261 85.4903C174.248 87.3527 174.768 89.4069 174.777 91.4916C174.775 94.6176 173.625 97.6451 171.526 100.055C169.427 102.464 166.509 104.106 163.273 104.698C160.037 105.29 156.685 104.795 153.792 103.298C150.899 101.801 148.645 99.3959 147.418 96.495L13.5166 169.832L0 177.228V82.8362L4.55185 80.3576L146.757 2.47203L151.254 0L155.778 2.47203L193.381 23.0855L197.912 25.5575V45.8282V119.745V119.693V121.084V304.021L193.381 306.493L154.979 327.528L150.454 330L145.93 327.528ZM154.27 91.5312C154.259 92.7172 154.619 93.8796 155.306 94.8708C155.993 95.8621 156.974 96.6375 158.126 97.0986C159.278 97.5598 160.549 97.6859 161.776 97.4609C163.004 97.2359 164.134 96.6701 165.022 95.8351C165.91 95.0001 166.516 93.9337 166.764 92.7712C167.012 91.6087 166.891 90.4025 166.415 89.3057C165.939 88.2089 165.13 87.2709 164.091 86.6108C163.052 85.9508 161.83 85.5984 160.58 85.5983C158.925 85.5999 157.337 86.2188 156.159 87.3214C154.981 88.424 154.307 89.9219 154.284 91.4916L154.27 91.5312ZM118.557 142.356C118.554 141.174 118.181 140.019 117.486 139.038C116.791 138.056 115.804 137.293 114.651 136.844C113.498 136.395 112.23 136.281 111.008 136.516C109.787 136.752 108.666 137.325 107.789 138.165C106.911 139.005 106.316 140.073 106.079 141.233C105.842 142.394 105.974 143.596 106.457 144.686C106.94 145.775 107.754 146.705 108.794 147.355C109.835 148.006 111.056 148.35 112.302 148.342C113.131 148.338 113.952 148.18 114.716 147.875C115.48 147.57 116.174 147.124 116.756 146.565C117.339 146.005 117.799 145.341 118.11 144.612C118.421 143.883 118.578 143.103 118.571 142.317L118.557 142.356ZM246.627 53.2114L234.542 46.6193L246.356 53.0861L246.627 53.2114Z" fill="white"/>
</g>
<defs>
<clipPath id="clip0_2262_225">
<rect width="197" height="330" fill="white"/>
</clipPath>
</defs>
</svg>
