<svg width="24" height="25" viewBox="0 0 24 25" fill="none" xmlns="http://www.w3.org/2000/svg">
<path d="M19 11.75V12.25C19 12.5261 18.7762 12.75 18.5 12.75H12.75V18.5C12.75 18.7761 12.5261 19 12.25 19H11.75C11.4739 19 11.25 18.7761 11.25 18.5V12.75H5.49997C5.22383 12.75 4.99997 12.5261 4.99997 12.25V11.75C4.99997 11.4739 5.22383 11.25 5.49997 11.25H11.25V5.5C11.25 5.22385 11.4739 5 11.75 5H12.25C12.5261 5 12.75 5.22385 12.75 5.5V11.25H18.5C18.7762 11.25 19 11.4739 19 11.75Z" fill="white"/>
</svg>
