<svg width="51" height="48" viewBox="0 0 51 48" fill="none" xmlns="http://www.w3.org/2000/svg">
<path d="M39.9882 3.68386L39.9885 3.68401C42.021 4.84545 42.7168 7.43852 41.5528 9.47627C40.3747 11.5313 40.2087 13.5115 41.0757 15.0097C41.9428 16.5081 43.7422 17.3499 46.1116 17.3499C48.457 17.3499 50.3629 19.2732 50.3866 21.6024V25.9999C50.3866 28.3471 48.4621 30.2499 46.1366 30.2499C43.7675 30.2499 41.9674 31.0916 41.1034 32.5909C40.2394 34.0902 40.4131 36.0707 41.6036 38.1251C42.7657 40.1363 42.0718 42.754 40.0385 43.9158L40.0382 43.916L35.7132 46.391L35.7132 46.3909L35.7059 46.3952C33.9787 47.4228 31.733 46.8172 30.6928 45.0718C30.6923 45.071 30.6918 45.0701 30.6913 45.0693L30.4193 44.5994L30.4192 44.5992C29.2284 42.5448 27.5956 41.4062 25.8647 41.4062C24.1333 41.4062 22.5068 42.5453 21.3285 44.6C21.3283 44.6004 21.328 44.6008 21.3278 44.6013L21.0569 45.0693C21.0563 45.0702 21.0558 45.071 21.0553 45.0719C20.015 46.8173 17.7695 47.4228 16.0422 46.3952L16.0423 46.3952L16.0349 46.391L11.7099 43.916L11.7096 43.9158C9.67742 42.7545 8.98151 40.1619 10.145 38.1243C11.3351 36.0702 11.5087 34.09 10.6448 32.5909C9.78077 31.0916 7.9806 30.2499 5.61157 30.2499C3.26442 30.2499 1.36157 28.3255 1.36157 25.9999V21.5999C1.36157 19.2528 3.286 17.3499 5.61157 17.3499C7.98052 17.3499 9.78043 16.5084 10.6445 15.0125C11.5088 13.5165 11.3352 11.5421 10.1446 9.49995C8.98103 7.4613 9.6787 4.84458 11.7096 3.68401L11.7099 3.68386L16.0349 1.20886L16.0349 1.20892L16.0422 1.20459C17.7735 0.174596 20.0138 0.787248 21.0021 2.52237L21.0039 2.52541L21.2789 3.00041L21.279 3.00062C22.4697 5.05501 24.1025 6.19367 25.8334 6.19367C27.5649 6.19367 29.1915 5.05446 30.3698 2.99953C30.37 2.9992 30.3702 2.99888 30.3704 2.99855L30.6428 2.52799C31.683 0.782572 33.9287 0.176982 35.6559 1.20459L35.6559 1.20465L35.6632 1.20886L39.9882 3.68386ZM17.2366 23.7999C17.2366 28.5511 21.1104 32.4249 25.8616 32.4249C30.6127 32.4249 34.4866 28.5511 34.4866 23.7999C34.4866 19.0488 30.6127 15.1749 25.8616 15.1749C21.1104 15.1749 17.2366 19.0488 17.2366 23.7999Z" fill="url(#paint0_linear_2040_267)" stroke="url(#paint1_linear_2040_267)"/>
<defs>
<linearGradient id="paint0_linear_2040_267" x1="3.54148" y1="4.41644" x2="45.118" y2="42.4906" gradientUnits="userSpaceOnUse">
<stop stop-color="#5037E4"/>
<stop offset="1" stop-color="#A576FF"/>
</linearGradient>
<linearGradient id="paint1_linear_2040_267" x1="3.54148" y1="4.41644" x2="45.118" y2="42.4906" gradientUnits="userSpaceOnUse">
<stop stop-color="#5037E4"/>
<stop offset="1" stop-color="#A576FF"/>
</linearGradient>
</defs>
</svg>
