<svg width="56" height="41" viewBox="0 0 56 41" fill="none" xmlns="http://www.w3.org/2000/svg">
<path d="M28.6228 6.97325L29.0847 7.1646C28.3657 8.90042 28.1776 10.8106 28.5441 12.6534C28.9107 14.4962 29.8154 16.1889 31.144 17.5176C31.144 17.5176 31.144 17.5176 31.144 17.5176M28.6228 6.97325L31.144 17.5176M28.6228 6.97325L29.0847 7.16459C29.8038 5.42865 31.0214 3.94494 32.5837 2.90109C34.1459 1.85722 35.9827 1.30005 37.8616 1.30005C40.3812 1.30005 42.7975 2.30097 44.5791 4.08249C46.3607 5.86413 47.3616 8.28046 47.3616 10.8C47.3616 12.679 46.8044 14.5157 45.7605 16.078C44.7167 17.6402 43.233 18.8579 41.497 19.5769L41.6884 20.0388M28.6228 6.97325L41.6884 20.0388M31.144 17.5176C32.4727 18.8462 34.1654 19.751 36.0082 20.1176C37.851 20.4841 39.7612 20.296 41.497 19.5769L41.6884 20.0388M31.144 17.5176L41.6884 20.0388M54.2759 39.7143C54.6509 39.3391 54.8616 38.8304 54.8616 38.3C54.8616 34.4545 53.3339 30.7662 50.6146 28.047L50.9682 27.6934L50.6146 28.047C47.8954 25.3278 44.2072 23.8 40.3616 23.8H35.3616C31.516 23.8 27.8278 25.3278 25.1085 28.047C22.3893 30.7662 20.8616 34.4545 20.8616 38.3C20.8616 38.8304 21.0723 39.3391 21.4473 39.7143C21.8224 40.0893 22.3312 40.3 22.8616 40.3H52.8616C53.3919 40.3 53.9006 40.0894 54.2758 39.7143C54.2758 39.7143 54.2758 39.7143 54.2759 39.7143ZM54.2759 39.7143L54.6294 40.0678L54.2759 39.7143ZM6.58471 7.1646L6.58471 7.16459C7.30375 5.42865 8.52138 3.94494 10.0837 2.90109C11.6459 1.85722 13.4827 1.30005 15.3616 1.30005C17.8811 1.30005 20.2975 2.30096 22.0791 4.08249C23.8607 5.86413 24.8616 8.28046 24.8616 10.8C24.8616 12.679 24.3044 14.5157 23.2605 16.078C22.2167 17.6402 20.733 18.8579 18.997 19.5769L19.1884 20.0388L18.997 19.5769C17.2612 20.296 15.351 20.4841 13.5082 20.1176C11.6654 19.751 9.97272 18.8462 8.64404 17.5176C7.31546 16.1889 6.41067 14.4962 6.04412 12.6534C5.67756 10.8106 5.86569 8.90043 6.58471 7.1646ZM14.8616 38.3008L14.8616 38.304C14.867 38.979 14.9577 39.6496 15.131 40.3H2.86157C2.33114 40.3 1.82242 40.0893 1.44734 39.7143C1.07227 39.3391 0.861572 38.8304 0.861572 38.3V37.2005C0.868062 33.6485 2.28197 30.2437 4.79364 27.7321C7.30542 25.2203 10.7103 23.8064 14.2625 23.8H16.4608C17.7744 23.802 19.0787 24.0018 20.3301 24.3916C18.678 26.1629 17.3539 28.2165 16.422 30.4568C15.3881 32.9425 14.8578 35.6086 14.8616 38.3008Z" fill="url(#paint0_linear_2040_250)" stroke="url(#paint1_linear_2040_250)"/>
<defs>
<linearGradient id="paint0_linear_2040_250" x1="3.308" y1="4.37148" x2="38.1648" y2="45.7788" gradientUnits="userSpaceOnUse">
<stop stop-color="#5037E4"/>
<stop offset="1" stop-color="#A576FF"/>
</linearGradient>
<linearGradient id="paint1_linear_2040_250" x1="3.308" y1="4.37148" x2="38.1648" y2="45.7788" gradientUnits="userSpaceOnUse">
<stop stop-color="#5037E4"/>
<stop offset="1" stop-color="#A576FF"/>
</linearGradient>
</defs>
</svg>
