<svg width="54" height="52" viewBox="0 0 54 52" fill="none" xmlns="http://www.w3.org/2000/svg">
<path d="M52.9447 21.5812L41.2653 32.9662L44.0235 49.0462C44.1435 49.7493 43.8547 50.4599 43.2772 50.8799C42.951 51.118 42.5628 51.238 42.1747 51.238C41.8766 51.238 41.5766 51.1668 41.3028 51.0224L26.8616 43.4305L12.4222 51.0205C11.7922 51.3543 11.0253 51.2999 10.4478 50.878C9.87027 50.458 9.58157 49.7474 9.70157 49.0443L12.4597 32.9643L0.778432 21.5812C0.268432 21.0824 0.0828122 20.3362 0.304062 19.6593C0.525312 18.9824 1.11218 18.4855 1.81906 18.3824L17.961 16.0387L25.1797 1.40993C25.8116 0.129308 27.9116 0.129308 28.5435 1.40993L35.7622 16.0387L51.9041 18.3824C52.611 18.4855 53.1978 18.9805 53.4191 19.6593C53.6403 20.338 53.4547 21.0805 52.9447 21.5812Z" fill="url(#paint0_linear_2040_259)"/>
<defs>
<linearGradient id="paint0_linear_2040_259" x1="8.61937" y1="7.10034" x2="42.0608" y2="47.5454" gradientUnits="userSpaceOnUse">
<stop stop-color="#14D5BB"/>
<stop offset="1" stop-color="#A3DA25"/>
</linearGradient>
</defs>
</svg>
