<svg width="61" height="61" viewBox="0 0 61 61" fill="none" xmlns="http://www.w3.org/2000/svg">
<path d="M37.069 14.2199C39.8433 15.9593 41.7886 18.9028 42.1428 22.3195C43.2742 22.8481 44.5299 23.1521 45.8612 23.1521C50.7216 23.1521 54.6609 19.2128 54.6609 14.3532C54.6609 9.49281 50.7216 5.55347 45.8612 5.55347C41.0473 5.55496 37.1424 9.42393 37.069 14.2199ZM31.3041 32.2371C36.1645 32.2371 40.1038 28.297 40.1038 23.4374C40.1038 18.5778 36.1637 14.6385 31.3041 14.6385C26.4445 14.6385 22.5029 18.5786 22.5029 23.4382C22.5029 28.2978 26.4445 32.2371 31.3041 32.2371ZM35.0368 32.8369H27.5699C21.3573 32.8369 16.303 37.8919 16.303 44.1046V53.236L16.3262 53.379L16.9552 53.576C22.8841 55.4285 28.0349 56.0462 32.2746 56.0462C40.5553 56.0462 45.3551 53.6853 45.6508 53.5348L46.2386 53.2375H46.3015V44.1046C46.3038 37.8919 41.2495 32.8369 35.0368 32.8369ZM49.5954 23.7527H42.1862C42.1061 26.7171 40.8406 29.3865 38.8391 31.3064C44.3614 32.9485 48.4018 38.0694 48.4018 44.1181V46.932C55.7175 46.6639 59.9331 44.5906 60.2109 44.4513L60.7987 44.1533H60.8616V35.0189C60.8616 28.807 55.8073 23.7527 49.5954 23.7527ZM15.8635 23.1536C17.5849 23.1536 19.1866 22.6512 20.5434 21.7954C20.9747 18.9822 22.4827 16.5239 24.637 14.8496C24.646 14.6849 24.6617 14.5217 24.6617 14.3554C24.6617 9.49506 20.7216 5.55571 15.8635 5.55571C11.0024 5.55571 7.06374 9.49506 7.06374 14.3554C7.06374 19.2135 11.0024 23.1536 15.8635 23.1536ZM23.7661 31.3064C21.7744 29.3963 20.5134 26.7411 20.4213 23.7946C20.1465 23.7744 19.8747 23.7527 19.5947 23.7527H12.1285C5.91586 23.7527 0.861572 28.807 0.861572 35.0189V44.1518L0.884785 44.2925L1.51376 44.491C6.27003 45.9758 10.5149 46.6602 14.2019 46.8758V44.1181C14.2034 38.0694 18.2424 32.95 23.7661 31.3064Z" fill="url(#paint0_linear_2040_275)"/>
<defs>
<linearGradient id="paint0_linear_2040_275" x1="10.3259" y1="12.1656" x2="42.5684" y2="56.3207" gradientUnits="userSpaceOnUse">
<stop stop-color="#14D5BB"/>
<stop offset="1" stop-color="#A3DA25"/>
</linearGradient>
</defs>
</svg>
