<svg width="33" height="33" viewBox="0 0 33 33" fill="none" xmlns="http://www.w3.org/2000/svg">
<path d="M6.74046 2.87012C5.98179 2.87012 5.25419 3.1715 4.71773 3.70796C4.18126 4.24442 3.87988 4.97202 3.87988 5.73069C3.87988 6.48937 4.18126 7.21697 4.71773 7.75343C5.25419 8.28989 5.98179 8.59127 6.74046 8.59127C7.49913 8.59127 8.22673 8.28989 8.76319 7.75343C9.29966 7.21697 9.60104 6.48937 9.60104 5.73069C9.60104 4.97202 9.29966 4.24442 8.76319 3.70796C8.22673 3.1715 7.49913 2.87012 6.74046 2.87012ZM4.04815 10.947C4.00352 10.947 3.96072 10.9648 3.92917 10.9963C3.89761 11.0279 3.87988 11.0707 3.87988 11.1153V28.6153C3.87988 28.7082 3.95527 28.7836 4.04815 28.7836H9.43277C9.4774 28.7836 9.5202 28.7659 9.55175 28.7343C9.58331 28.7027 9.60104 28.6599 9.60104 28.6153V11.1153C9.60104 11.0707 9.58331 11.0279 9.55175 10.9963C9.5202 10.9648 9.4774 10.947 9.43277 10.947H4.04815ZM12.7982 10.947C12.7535 10.947 12.7107 10.9648 12.6792 10.9963C12.6476 11.0279 12.6299 11.0707 12.6299 11.1153V28.6153C12.6299 28.7082 12.7053 28.7836 12.7982 28.7836H18.1828C18.2274 28.7836 18.2702 28.7659 18.3018 28.7343C18.3333 28.7027 18.351 28.6599 18.351 28.6153V19.1922C18.351 18.5228 18.617 17.8808 19.0903 17.4075C19.5637 16.9341 20.2057 16.6682 20.8751 16.6682C21.5445 16.6682 22.1865 16.9341 22.6598 17.4075C23.1332 17.8808 23.3991 18.5228 23.3991 19.1922V28.6153C23.3991 28.7082 23.4745 28.7836 23.5674 28.7836H28.952C28.9966 28.7836 29.0394 28.7659 29.071 28.7343C29.1025 28.7027 29.1203 28.6599 29.1203 28.6153V17.0115C29.1203 13.7443 26.2799 11.1893 23.0289 11.4842C22.0232 11.5764 21.038 11.8253 20.1091 12.2218L18.351 12.9757V11.1153C18.351 11.0707 18.3333 11.0279 18.3018 10.9963C18.2702 10.9648 18.2274 10.947 18.1828 10.947H12.7982Z" fill="white"/>
</svg>
