<svg width="245" height="54" viewBox="0 0 245 54" fill="none" xmlns="http://www.w3.org/2000/svg">
<path d="M132.358 26.5347V37.9318H129.205V27.2335C129.205 25.6905 128.516 24.9181 127.139 24.9166L118.174 24.9002V37.8873H115.037V15.1727H118.195V21.6663H127.551C130.745 21.6757 132.347 23.2985 132.358 26.5347ZM95.505 26.4268V32.9016C95.5141 36.216 97.0883 37.8834 100.228 37.9037H111.222V34.6347H101.376C99.5566 34.6347 98.6466 33.7998 98.6466 32.1653V27.1257C98.6466 25.5732 99.3518 24.8087 100.719 24.8087H111.218V21.6663H100.2C97.0823 21.6757 95.5141 23.2625 95.4959 26.4268H95.505ZM55.4288 18.416H63.3225V37.9131H66.4414V18.416H74.1759V15.1985H55.4356L55.4288 18.416ZM87.1062 21.6663H79.2034C76.0595 21.6757 74.4853 23.2985 74.4808 26.5347V33.1361C74.5081 36.2879 76.0822 37.8803 79.2034 37.9131H91.1236V34.6628H79.7607C78.3412 34.6628 77.636 33.8725 77.636 32.2638V27.2429C77.636 25.6998 78.4276 24.926 80.0314 24.926H87.0971C88.1345 24.926 88.6569 25.3301 88.6645 26.1384V27.4868H79.3512V30.791H91.8198V25.7163C91.7925 23.0522 90.2137 21.685 87.0971 21.6663H87.1062ZM213.914 18.5145H217.147V15.1727H213.914V18.5145ZM213.957 37.9037H217.142V21.5397H213.957V37.9037ZM241.854 15.1727V37.9037H245V15.1727H241.854ZM233.457 21.6663H222.445V24.9002H232.909C234.313 24.9002 235.018 25.7514 235.018 27.468L235.036 34.6534H226.114C224.71 34.6534 224.014 33.9804 224.014 32.6226H223.996C223.996 31.3562 224.763 30.7277 226.271 30.7277H233.196V27.4774H224.886C222.201 27.4962 220.859 28.8681 220.859 31.6095V33.8397C220.859 36.5443 222.311 37.8975 225.215 37.899H238.182V26.4221C238.158 23.2547 236.58 21.6694 233.448 21.6663H233.457ZM206.232 15.1727H203.088V21.603H198.356V24.8626H203.088V37.9037H206.232V24.8556H210.954V21.603H206.232V15.1727ZM148.678 28.0707H140.861C139.808 28.0707 139.285 27.515 139.285 26.4292C139.285 25.3434 139.808 24.8486 140.843 24.8415H153.328V21.6522H140.861C137.715 21.6522 136.13 23.0077 136.123 25.7303V27.3719C136.123 30.0289 137.715 31.3586 140.861 31.3586H148.223C149.556 31.3773 150.236 31.8792 150.245 32.8594C150.202 34.0319 149.522 34.6464 148.198 34.6534H136.166V37.8873H148.598C151.76 37.8873 153.366 36.5342 153.416 33.8279V32.238C153.407 29.4708 151.822 28.0778 148.678 28.0778V28.0707ZM168.969 21.6593H161.085C157.932 21.6686 156.355 23.2914 156.353 26.5277V33.1361C156.389 36.2879 157.967 37.8803 161.085 37.9131H172.987V34.6628H161.633C160.214 34.6628 159.508 33.8725 159.508 32.2638V27.2429C159.508 25.6998 160.307 24.9275 161.904 24.926H168.969C170.007 24.926 170.537 25.3317 170.546 26.1384L170.53 27.4868H161.233V30.791H173.701V25.7163C173.663 23.0522 172.086 21.685 168.967 21.6663L168.969 21.6593ZM189.948 21.6405H177.341V37.8967H180.496V24.8931H189.416C190.781 24.9189 191.491 25.6295 191.516 27.0037V37.8732H194.7L194.685 26.5206C194.686 23.2969 193.107 21.6718 189.946 21.6452L189.948 21.6405Z" fill="#202854"/>
<path d="M48.7786 40.0714L47.9536 40.5222L36.5954 46.7174L33.9307 48.1718V44.6011L34.9578 44.0399L45.4943 38.2913V29.4473L48.7786 31.1616V40.0714ZM0.0561228 31.0682V40.0714L0.881132 40.5222L12.2381 46.7174L14.9028 48.1676V44.6011L13.8803 44.0399H13.8702L3.33594 38.2977V29.3539L0.0561228 31.0682ZM33.3628 8.15452C33.342 8.04958 33.3319 7.94302 33.3324 7.83627C33.3329 7.29588 33.5471 6.77518 33.9331 6.37646C34.319 5.97775 34.8488 5.72985 35.4183 5.68146C35.9877 5.63308 36.5558 5.78771 37.0108 6.11498C37.4658 6.44224 37.7749 6.91849 37.8773 7.45014L39.7989 8.53217L39.8382 8.55657L39.9504 8.61704L41.4242 9.42113L48.0467 13.0332L48.7774 13.4321V28.6548L46.5898 27.4604L36.4181 21.9102C36.1666 21.9978 35.9004 22.042 35.6324 22.0406C35.1942 22.0416 34.765 21.9238 34.3955 21.7013C34.0259 21.4787 33.7317 21.1608 33.5475 20.7851C33.3633 20.4093 33.2969 19.9916 33.3562 19.5813C33.4155 19.171 33.598 18.7854 33.882 18.4701C34.1661 18.1548 34.5398 17.9231 34.9589 17.8024C35.378 17.6816 35.825 17.677 36.2468 17.7889C36.6686 17.9009 37.0477 18.1247 37.339 18.434C37.6304 18.7433 37.8219 19.125 37.8907 19.5339L45.8602 23.8769V15.0201L42.0438 12.9441L37.6584 10.5509L36.4069 9.86774C36.088 9.97703 35.7474 10.018 35.4098 9.98761C35.0721 9.95724 34.7458 9.85633 34.4545 9.69217C34.1632 9.528 33.9141 9.3047 33.7253 9.0384C33.5365 8.7721 33.4126 8.46947 33.3628 8.1524V8.15452ZM36.6471 19.8766C36.6468 19.6863 36.5868 19.5003 36.4747 19.3422C36.3625 19.1842 36.2032 19.0612 36.0169 18.9888C35.8307 18.9164 35.6259 18.8979 35.4285 18.9356C35.2312 18.9733 35.0501 19.0656 34.9082 19.2007C34.7664 19.3358 34.6702 19.5076 34.6318 19.6945C34.5934 19.8813 34.6146 20.0747 34.6926 20.2501C34.7707 20.4255 34.9021 20.5751 35.0702 20.6799C35.2383 20.7847 35.4355 20.84 35.6368 20.8387C35.9058 20.837 36.1631 20.7348 36.3524 20.5542C36.5417 20.3737 36.6477 20.1307 36.6471 19.8766ZM34.6053 7.83415C34.6058 8.02406 34.6657 8.20958 34.7776 8.36731C34.8895 8.52503 35.0484 8.64789 35.2341 8.72037C35.4199 8.79285 35.6241 8.81171 35.8212 8.77456C36.0183 8.7374 36.1993 8.64591 36.3413 8.51163C36.4834 8.37734 36.5802 8.20629 36.6195 8.02005C36.6589 7.83381 36.6389 7.64074 36.5622 7.46521C36.4855 7.28968 36.3555 7.13955 36.1886 7.03379C36.0217 6.92802 35.8254 6.87135 35.6245 6.87093C35.4907 6.87079 35.3582 6.89557 35.2346 6.94386C35.1109 6.99216 34.9986 7.063 34.9039 7.15236C34.8092 7.24172 34.7341 7.34784 34.6829 7.46464C34.6317 7.58144 34.6053 7.70771 34.6053 7.83415ZM23.5704 52.7068L17.3633 49.3217L16.6314 48.9239V24.5346C16.1819 24.1644 15.9029 23.643 15.8538 23.0814C15.8046 22.5198 15.9893 21.9622 16.3684 21.5272C16.7475 21.0923 17.2912 20.8142 17.8838 20.7522C18.4765 20.6902 19.0714 20.8491 19.542 21.1952L19.5554 21.1877V21.2037C19.8257 21.4067 20.044 21.6648 20.194 21.9587C20.3441 22.2526 20.422 22.5747 20.422 22.901C20.422 23.2273 20.3441 23.5494 20.194 23.8432C20.044 24.1371 19.8257 24.3952 19.5554 24.5983V47.3295L24.3012 49.9168L29.0424 47.3295V5.69979L24.4213 3.17715L2.91838 14.9109V23.7507L23.5615 12.489L24.2877 12.0955L25.015 12.489L25.2979 12.6471C25.639 12.5543 25.9983 12.5375 26.3474 12.598C26.6966 12.6585 27.0262 12.7947 27.3103 12.9958C27.5944 13.197 27.8252 13.4577 27.9848 13.7574C28.1443 14.0571 28.2282 14.3876 28.2298 14.7231C28.2293 15.2261 28.0436 15.7133 27.7046 16.1011C27.3655 16.4889 26.8942 16.7531 26.3716 16.8483C25.849 16.9435 25.3075 16.8639 24.8403 16.623C24.373 16.3821 24.0089 15.9951 23.8107 15.5283L2.18318 27.3299L0 28.5201V13.3303L0.735207 12.9314L23.704 0.397807L24.4303 0L25.161 0.397807L31.2346 3.71499L31.9664 4.1128V7.37482V19.2698V19.2613V19.4851V48.9239L31.2346 49.3217L25.0319 52.7068L24.3012 53.1046L23.5704 52.7068ZM24.9174 14.7295C24.9156 14.9203 24.9739 15.1074 25.0848 15.2669C25.1957 15.4264 25.3542 15.5512 25.5403 15.6254C25.7264 15.6996 25.9316 15.7199 26.1299 15.6837C26.3281 15.6475 26.5106 15.5564 26.654 15.4221C26.7975 15.2877 26.8954 15.1161 26.9355 14.929C26.9755 14.7419 26.9559 14.5478 26.879 14.3713C26.8022 14.1948 26.6715 14.0439 26.5037 13.9377C26.3359 13.8315 26.1385 13.7747 25.9366 13.7747C25.6693 13.775 25.4128 13.8746 25.2225 14.052C25.0323 14.2295 24.9235 14.4705 24.9196 14.7231L24.9174 14.7295ZM19.1491 22.9084C19.1486 22.7181 19.0885 22.5323 18.9761 22.3744C18.8638 22.2164 18.7044 22.0936 18.5182 22.0214C18.3319 21.9491 18.1272 21.9308 17.9299 21.9686C17.7326 22.0065 17.5516 22.0988 17.4099 22.2339C17.2682 22.3691 17.1721 22.5409 17.1338 22.7277C17.0955 22.9145 17.1167 23.1079 17.1948 23.2832C17.2729 23.4586 17.4042 23.6081 17.5723 23.7129C17.7404 23.8176 17.9376 23.8729 18.1389 23.8716C18.2728 23.8711 18.4053 23.8455 18.5288 23.7964C18.6522 23.7473 18.7642 23.6757 18.8583 23.5856C18.9523 23.4955 19.0266 23.3888 19.0769 23.2714C19.1272 23.1541 19.1525 23.0286 19.1513 22.902L19.1491 22.9084ZM39.8348 8.56293L37.8829 7.50212L39.7911 8.54278L39.8348 8.56293Z" fill="url(#paint0_linear_2041_59)"/>
<defs>
<linearGradient id="paint0_linear_2041_59" x1="2.61314" y1="4.74148" x2="48.3494" y2="41.0363" gradientUnits="userSpaceOnUse">
<stop stop-color="#5037E4"/>
<stop offset="1" stop-color="#A576FF"/>
</linearGradient>
</defs>
</svg>
