<svg width="76" height="86" viewBox="0 0 76 86" fill="none" xmlns="http://www.w3.org/2000/svg">
<path fill-rule="evenodd" clip-rule="evenodd" d="M35.6875 0.419959C32.8675 1.46985 31.1868 4.28228 31.6008 7.25987L31.8178 8.82124L21.6038 14.7102C11.6194 20.4671 11.3734 20.5846 10.6661 19.9396C8.21512 17.7056 3.79951 17.8108 1.7538 20.1525C-0.753222 23.022 -0.528896 27.2234 2.25709 29.5807C2.85807 30.0889 3.81543 30.5986 4.38493 30.7132L5.41973 30.9213V42.876V54.8304L4.06798 55.3983C0.433535 56.9251 -0.95801 60.5226 0.681741 64.1528C1.74801 66.5134 3.28501 67.3909 6.35249 67.3909C8.56644 67.3909 9.08384 67.2599 10.1725 66.4254L11.4317 65.4595L21.6023 71.3365L31.7733 77.2131L31.5729 78.7592C31.3153 80.7425 32.2423 83.249 33.6837 84.4688C36.0453 86.4667 39.6371 86.5155 41.83 84.5798C43.6337 82.9875 44.1996 81.6767 44.0917 79.3394L43.9998 77.343L54.2552 71.3918L64.5105 65.441L65.7815 66.4159C66.884 67.261 67.3938 67.3909 69.6139 67.3909C72.6264 67.3909 74.0903 66.5847 75.2586 64.2827C77.0174 60.8161 75.548 56.9316 71.8984 55.3983L70.5467 54.8304V42.876V30.9213L71.6907 30.6914C73.2208 30.3836 75.5097 27.9291 75.8209 26.2626C76.6386 21.8783 73.744 18.2979 69.4268 18.3543C67.6894 18.3768 66.5214 18.8265 65.2971 19.9433C64.585 20.593 64.3578 20.4835 54.2852 14.6407L44.0006 8.675L44.0932 6.66144C44.3074 2.01152 40.0014 -1.18616 35.6875 0.419959ZM35.7663 2.70381C34.2847 3.62819 33.5245 5.20411 33.7489 6.88626C34.2257 10.4594 38.3291 11.8734 40.8538 9.33491C41.4139 8.77177 41.9581 7.8583 42.0634 7.30462C42.7288 3.80499 38.7086 0.86778 35.7663 2.70381ZM22.7138 16.4444C17.2012 19.6548 12.6832 22.4039 12.6734 22.5542C12.664 22.7044 12.6561 23.6863 12.6564 24.7369V26.6468L18.2635 30.0678C22.6719 32.7573 24.0145 33.4183 24.5442 33.16C24.9144 32.9792 27.8455 31.3607 31.0577 29.5636L36.8977 26.2965V19.4685C36.8977 14.0976 36.7972 12.641 36.4259 12.641C36.1661 12.641 35.2301 12.1834 34.3455 11.6242L32.7369 10.6074L22.7138 16.4444ZM42.1481 11.1811C41.7902 11.5787 40.9512 12.1026 40.2833 12.3456L39.0686 12.7872V19.5882V26.3896L45.4229 30.0849L51.7767 33.7803L57.5958 30.3956L63.4149 27.0106L63.4051 24.6969L63.3954 22.3836L55.3026 17.6674C41.7435 9.76636 42.9061 10.3393 42.1481 11.1811ZM4.84733 20.633C2.59973 21.5472 1.54286 24.567 2.69018 26.7977C3.21735 27.8229 5.16862 29.0114 6.32427 29.0114C7.47991 29.0114 9.43118 27.8229 9.95835 26.7977C11.783 23.2505 8.41122 19.1833 4.84733 20.633ZM67.8146 20.8447C64.7467 22.3672 64.7268 26.9593 67.7813 28.4166C69.3429 29.1616 69.9413 29.1616 71.5029 28.4166C74.6706 26.9054 74.5284 22.52 71.2562 20.8189C69.9605 20.1452 69.2134 20.1506 67.8146 20.8447ZM32.4391 31.1668C29.4896 32.9316 26.9319 34.5206 26.7553 34.6981C26.5686 34.8858 28.8358 36.4923 32.1742 38.5382L37.9141 42.0557L43.5772 38.5855C46.6921 36.6771 49.18 35.055 49.1058 34.9804C48.9281 34.8018 37.9239 27.9146 37.8551 27.9389C37.8262 27.9495 35.389 29.4017 32.4391 31.1668ZM10.8007 29.2526C10.5278 29.5851 9.61209 30.1657 8.76653 30.5426L7.22881 31.2283V43.0292V54.8304L8.57223 55.395C9.31142 55.7053 10.1747 56.195 10.4909 56.4827C10.9997 56.9451 11.7233 56.6242 16.7457 53.7099L22.4251 50.414L22.4164 42.7141L22.4081 35.0139L17.0612 31.8307C14.1203 30.0802 11.6205 28.6476 11.5058 28.6476C11.3911 28.6476 11.0738 28.9197 10.8007 29.2526ZM58.5163 32.3531L52.8177 35.6509V42.8764V50.1019L54.1745 50.963C54.9209 51.4366 57.5987 53.0089 60.1256 54.4564L64.7196 57.0892L65.9147 56.1837C66.5717 55.6857 67.3999 55.2204 67.7549 55.1502C68.3584 55.0305 68.4 54.2491 68.3982 43.0546L68.3964 31.0868L66.9835 30.4509C66.2063 30.1009 65.4595 29.6338 65.3235 29.413C65.1878 29.1922 64.8828 29.0212 64.6458 29.0332C64.4088 29.0452 61.6503 30.5393 58.5163 32.3531ZM24.6785 43.6334L24.7769 50.6156L29.1187 53.1915C31.5067 54.6081 34.2341 56.2204 35.1791 56.7741L36.8977 57.7811V50.7611V43.7411L30.9401 40.196C27.6631 38.2461 24.8916 36.6509 24.7812 36.6509C24.6709 36.6509 24.6246 39.7929 24.6785 43.6334ZM44.9482 40.1651L39.0686 43.6636V50.7276V57.7916L40.6064 56.86C41.4523 56.3474 44.1388 54.7511 46.5763 53.313L51.0086 50.6978V43.6745C51.0086 39.8115 50.9677 36.6545 50.9181 36.6589C50.8686 36.6629 48.1821 38.241 44.9482 40.1651ZM17.9255 55.4972L12.5218 58.6694L12.5551 61.1807L12.588 63.6919L22.674 69.559L32.7597 75.4258L34.3585 74.4098C35.2381 73.8506 36.169 73.3933 36.4277 73.3933C36.7961 73.3933 36.8977 71.948 36.8977 66.7062V60.0194L30.2197 56.1564C26.5469 54.0319 23.4939 52.3006 23.4356 52.3094C23.3774 52.3181 20.8979 53.7525 17.9255 55.4972ZM45.6573 56.1582L39.0686 60.0064V66.6604V73.3144L39.9453 73.5356C40.4276 73.6574 41.2974 74.1591 41.8789 74.6509L42.9357 75.5451L53.1516 69.6089L63.3679 63.6726L63.4294 61.2843L63.4912 58.8961L58.6067 56.0713C55.9202 54.5179 53.3901 53.0358 52.9841 52.7783C52.3227 52.3588 51.56 52.711 45.6573 56.1582ZM4.24853 57.5923C2.08704 58.7717 1.49945 61.9944 3.09795 63.9043C4.83684 65.9823 7.63332 65.9961 9.49016 63.936C12.575 60.5131 8.32439 55.3688 4.24853 57.5923ZM67.6134 57.5675C65.3463 58.8066 64.7572 61.9228 66.4158 63.9043C69.691 67.8179 75.5973 63.7493 73.2541 59.1937C72.2512 57.2434 69.6034 56.4802 67.6134 57.5675ZM36.6759 75.6412C33.1953 76.5481 32.6536 81.4636 35.8268 83.348C38.8092 85.1196 42.7266 82.2184 42.0634 78.7297C41.8108 77.4008 40.0835 75.7016 38.7919 75.5109C38.2245 75.4273 37.2726 75.4858 36.6759 75.6412Z" fill="white"/>
</svg>
