<svg width="82" height="82" viewBox="0 0 82 82" fill="none" xmlns="http://www.w3.org/2000/svg">
<path fill-rule="evenodd" clip-rule="evenodd" d="M0 3.93886V7.87773H1.61135H3.22271V41V74.1223H1.61135H0V78.0611V82H3.93886H7.87773V80.3886V78.7773H41H74.1223V80.3886V82H78.0611H82V78.0611V74.1223H80.3886H78.7773V41V7.87773H80.3886H82V3.93886V0H78.0611H74.1223V1.61135V3.22271H41H7.87773V1.61135V0H3.93886H0V3.93886ZM1.90981 1.90981C1.8441 1.97534 1.79039 2.94215 1.79039 4.05828V6.08734H3.93886H6.08734V3.93886V1.79039H4.05828C2.94215 1.79039 1.97534 1.8441 1.90981 1.90981ZM75.9127 3.93314V6.08734H78.0669H80.2209L80.1706 3.98362L80.1201 1.87991L78.0164 1.82942L75.9127 1.77911V3.93314ZM7.87773 6.53493V7.87773H6.53493H5.19214V41V74.1223H6.53493H7.87773V75.4651V76.8079H41H74.1223V75.4651V74.1223H75.4651H76.8079V41V7.87773H75.4651H74.1223V6.53493V5.19214H41H7.87773V6.53493ZM45.5272 29.488C44.9774 29.5945 43.4217 31.0302 43.1529 31.6794C43.0308 31.9741 42.7583 32.2697 42.5473 32.3365C41.8187 32.5667 36.6997 35.0464 36.0084 35.5039C35.6269 35.7563 35.1497 36.23 34.9478 36.5568C34.4225 37.4069 30.5421 52.1411 30.6893 52.7273C30.9484 53.7596 31.0757 53.7424 39.3095 51.5563C45.1913 49.9948 47.1199 49.4131 47.7093 49.0226C48.3479 48.5997 48.6831 48.124 49.7366 46.1456C50.4307 44.8418 51.255 43.2514 51.5683 42.6114C52.0016 41.7264 52.3199 41.3353 52.8975 40.9792C53.8285 40.4051 54.5946 39.4316 54.7869 38.5787C55.0823 37.2694 54.8007 36.8436 51.3236 33.3411C47.5919 29.5821 47.0164 29.1997 45.5272 29.488ZM45.6343 32.1995L45.0284 32.747L48.2334 35.9624C49.996 37.7307 51.5268 39.1391 51.6351 39.0918C51.7433 39.0447 52.0077 38.7839 52.2227 38.5121L52.6136 38.0181L49.4268 34.8351L46.2401 31.6522L45.6343 32.1995ZM40.3137 35.882C38.8039 36.6006 37.3784 37.3814 37.146 37.6172C36.8162 37.9517 36.4273 39.1641 35.3753 43.1384C34.6339 45.9395 34.0493 48.2531 34.0762 48.2799C34.103 48.3068 34.9968 47.4542 36.0623 46.3853L37.9997 44.4419L37.7716 43.5515C37.36 41.9455 38.0568 40.2672 39.5075 39.3706C40.5191 38.7454 42.2402 38.7756 43.3674 39.4382C44.2607 39.9632 44.9872 40.9894 45.2049 42.0334C45.7578 44.6844 42.8964 47.2103 40.3442 46.3245L39.5987 46.0657L37.6675 48.0029C36.6053 49.0684 35.7726 49.9708 35.8168 50.0082C35.8612 50.0456 38.2193 49.4564 41.0573 48.6985C44.492 47.7815 46.3314 47.2068 46.5585 46.9796C46.9137 46.6243 49.7715 41.2259 49.7724 40.9085C49.7733 40.6126 43.6158 34.5537 43.3257 34.565C43.1789 34.5707 41.8236 35.1633 40.3137 35.882ZM40.344 41.6397C39.9601 42.0237 39.9007 42.2103 39.9886 42.7587C40.2402 44.331 42.1747 44.6608 42.8212 43.2417C43.4878 41.7788 41.494 40.4897 40.344 41.6397ZM1.82942 78.0164L1.87991 80.1201L3.98362 80.1706L6.08734 80.2209V78.0669V75.9127H3.93314H1.77911L1.82942 78.0164ZM75.9127 78.0669V80.2209L78.0164 80.1706L80.1201 80.1201L80.1706 78.0164L80.2209 75.9127H78.0669H75.9127V78.0669Z" fill="white"/>
</svg>
