<svg width="88" height="62" viewBox="0 0 88 62" fill="none" xmlns="http://www.w3.org/2000/svg">
<path fill-rule="evenodd" clip-rule="evenodd" d="M10.7529 0.0776551C8.05123 0.423483 5.75957 2.62207 5.23263 5.37379C5.16393 5.73281 5.11755 15.5301 5.11755 29.7046V53.4343L3.72989 53.4784C2.48767 53.5178 2.28254 53.5572 1.77324 53.8534C1.46031 54.0354 1.02317 54.3886 0.801885 54.6381C0.086103 55.4456 0.000623639 55.7758 6.90381e-06 57.7362C-0.000486484 59.3539 0.0247996 59.558 0.291352 60.0901C0.451827 60.4107 0.830748 60.8887 1.13332 61.1524C2.21593 62.0962 -1.91458 62.0167 44.2217 61.9819L85.6014 61.9506L86.2723 61.5841C86.9592 61.209 87.5718 60.5032 87.8431 59.7742C88.0623 59.1856 88.0483 56.2956 87.8232 55.6638C87.5385 54.8646 86.969 54.2486 86.1323 53.8345C85.4359 53.4899 85.2775 53.4607 84.1015 53.4607H82.8261L82.8232 29.4873C82.8211 13.4772 82.7779 5.33238 82.693 4.96761C82.2153 2.91476 80.4174 1.01277 78.2712 0.289842L77.4605 0.0168206L44.4652 0.00130671C26.3178 -0.00724431 11.1472 0.0270819 10.7529 0.0776551ZM10.6065 1.95961C9.35822 2.26708 8.37736 2.94896 7.72942 3.95982C6.91385 5.23196 6.96775 3.41255 6.96775 29.6622V53.4607H20.3148H33.6618L35.4035 55.1709L37.1452 56.8811H43.9799H50.8144L52.5136 55.2014L54.213 53.5217L67.6252 53.4607L81.0376 53.3996L81.0713 30.0675C81.0941 14.1968 81.0634 6.46197 80.9751 5.88037C80.9036 5.41007 80.6968 4.73222 80.5152 4.37393C80.0802 3.51504 78.9613 2.49832 78.0507 2.13442L77.3372 1.84918L44.2802 1.82841C18.2815 1.81217 11.0915 1.84014 10.6065 1.95961ZM11.2177 5.87488L10.9149 6.17465V27.6024V49.03L11.1706 49.3519L11.4261 49.6738H43.9808C76.371 49.6738 76.5367 49.6726 76.7821 49.4295C77.027 49.187 77.0288 49.0223 77.0288 27.6456V6.10624L76.7434 5.84055L76.4578 5.57498H43.9891H11.5204L11.2177 5.87488ZM12.7651 27.6244V47.8414H44.0335H75.302V27.6244V7.40734H44.0335H12.7651V27.6244ZM32.944 11.9655L32.6239 12.2825V19.5009V26.7193L32.9267 27.0191L33.2294 27.319H40.5181H47.8068L48.1095 27.0191C48.477 26.6553 48.5032 26.0328 48.2279 24.2234C47.1833 17.3599 41.5096 12.2224 34.4298 11.7296C33.2894 11.6502 33.2573 11.6552 32.944 11.9655ZM34.4741 19.5009V25.4866H40.5223H46.5706L46.4881 24.8453C46.248 22.9772 45.488 20.9463 44.4383 19.3674C42.4082 16.314 39.3279 14.3257 35.6606 13.7016C35.058 13.5991 34.5447 13.5152 34.5196 13.5152C34.4946 13.5152 34.4741 16.2088 34.4741 19.5009ZM29.2319 14.696C25.5225 15.145 22.6179 16.5043 20.1328 18.9543C18.0043 21.0528 16.6606 23.544 16.0162 26.586C15.7217 27.9768 15.7211 30.6466 16.015 32.1212C17.0472 37.2988 20.9513 41.6869 25.9632 43.3024C32.2868 45.3407 39.2336 42.9587 42.9056 37.4927C44.4372 35.2129 45.2093 32.9623 45.4048 30.2069C45.4849 29.0774 45.4799 29.0457 45.1666 28.7354L44.8465 28.4184H38.1801H31.5138V21.8164V15.2143L31.211 14.9145C30.9053 14.6117 30.3943 14.5553 29.2319 14.696ZM51.5349 15.1019C50.9638 15.3345 50.8294 16.1211 51.288 16.5479C51.571 16.811 51.6164 16.8135 56.3238 16.8135H61.074L61.3423 16.5308C61.6732 16.1818 61.6859 15.7114 61.3747 15.3306L61.139 15.0422L56.4717 15.0171C53.9047 15.0035 51.6831 15.0416 51.5349 15.1019ZM28.749 16.5822C25.3647 17.071 22.1952 18.95 20.1236 21.6955C19.2958 22.7924 18.377 24.7142 17.9883 26.1613C17.7 27.2348 17.6607 27.6129 17.6581 29.3346C17.6555 31.074 17.6915 31.4235 17.9856 32.5107C18.9869 36.2138 21.4172 39.1762 24.8526 40.8811C26.4553 41.6765 28.0035 42.0789 29.8739 42.1861C36.6697 42.5758 42.7231 37.5415 43.5275 30.831L43.5971 30.2508H36.933H30.2691L29.9664 29.9509L29.6636 29.6511V23.049C29.6636 19.4179 29.622 16.4537 29.5711 16.4619C29.5201 16.4701 29.1502 16.5242 28.749 16.5822ZM51.2708 19.4171C50.8913 19.8172 50.9165 20.3934 51.3276 20.7136C51.6506 20.9652 51.7194 20.9668 61.9286 20.9668H72.2045L72.5135 20.692C72.9596 20.2949 72.9892 19.7758 72.5883 19.3788C72.3456 19.1384 72.1772 19.1344 61.9403 19.1344H51.539L51.2708 19.4171ZM51.2493 23.5321C51.1123 23.6678 51.0026 23.9393 51.0026 24.1429C51.0026 24.3465 51.1123 24.618 51.2493 24.7537C51.4922 24.9942 51.6604 24.998 61.9614 24.998C71.9433 24.998 72.4361 24.9877 72.6309 24.7746C72.9068 24.4727 72.8946 23.7455 72.6094 23.49C72.4033 23.3051 71.485 23.2878 61.9399 23.2878C51.6604 23.2878 51.4922 23.2916 51.2493 23.5321ZM51.2708 27.846C50.8913 28.246 50.9165 28.8223 51.3276 29.1424C51.6506 29.394 51.7195 29.3957 61.9188 29.3957C72.1181 29.3957 72.1871 29.394 72.51 29.1424C72.9173 28.8252 72.9557 28.1714 72.5883 27.8076C72.3456 27.5672 72.1772 27.5633 61.9403 27.5633H51.539L51.2708 27.846ZM53.948 35.4627C52.6931 35.8777 51.563 37.0777 51.1717 38.4105C50.915 39.2849 50.9921 40.6078 51.3458 41.3977C51.7286 42.2531 52.718 43.2266 53.6272 43.6424L54.3946 43.9935L61.6552 44.0286C69.7527 44.0679 69.7141 44.0712 70.9473 43.2428C72.1831 42.4128 72.7361 41.4014 72.8079 39.8401C72.8503 38.9165 72.8139 38.6236 72.5799 38.0078C72.1985 37.0037 71.0826 35.8922 70.0859 35.5233C69.3823 35.263 69.2652 35.2593 61.945 35.2668C55.5942 35.2731 54.4354 35.3016 53.948 35.4627ZM54.888 37.0836C53.6092 37.392 52.8528 38.3486 52.8528 39.6579C52.8528 40.6824 53.5008 41.6261 54.4832 42.0325C54.8795 42.1964 55.8934 42.2222 61.9524 42.2222H68.9628L69.618 41.8988C70.7421 41.3441 71.2778 40.1877 70.9705 38.9792C70.764 38.1672 69.9118 37.3135 69.1074 37.113C68.4627 36.9522 55.5438 36.9256 54.888 37.0836ZM2.47977 55.5481C1.9146 55.9885 1.78718 56.3909 1.78718 57.7362C1.78718 59.0815 1.9146 59.4839 2.47977 59.9243L2.80726 60.1793H43.933C89.1628 60.1793 85.5562 60.2419 85.9694 59.4504C86.2317 58.9481 86.2317 56.5243 85.9694 56.0219C85.5657 55.2487 86.5348 55.293 70.0405 55.293H55.0222L53.3418 56.9422L51.6613 58.5913H43.9797H36.2982L34.6063 56.9422L32.9145 55.293H17.8609H2.80726L2.47977 55.5481Z" fill="white"/>
</svg>
