<svg width="79" height="78" viewBox="0 0 79 78" fill="none" xmlns="http://www.w3.org/2000/svg">
<path fill-rule="evenodd" clip-rule="evenodd" d="M20.93 0.159598C19.373 0.573116 17.9138 1.76067 17.2254 3.17454C16.6998 4.2539 16.5605 4.95931 16.6336 6.17101C16.8101 9.09274 19.1106 11.3668 22.0645 11.5394C23.3028 11.6118 24.1004 11.4604 25.0954 10.9643C26.4677 10.2799 27.4888 9.14946 28.0099 7.73766L28.249 7.09006L30.7511 7.09247C33.0286 7.09465 33.2979 7.11487 33.751 7.31748C34.3648 7.59188 34.8038 7.99316 35.1165 8.56535C35.3501 8.99319 35.3559 9.11383 35.3878 14.2206L35.4206 19.4388L29.9668 19.4396C26.7216 19.4401 24.2258 19.4865 23.8035 19.5542C23.4132 19.6167 22.8158 19.7972 22.4759 19.9552C21.7254 20.3043 20.6116 21.3752 20.2721 22.0741C19.7434 23.1626 19.7023 23.7025 19.7056 29.4926L19.7087 34.902L14.8092 34.9309C11.59 34.95 9.70954 34.919 9.32642 34.8407C8.54026 34.6801 7.88277 34.1727 7.50329 33.4337L7.19905 32.8411V30.3619V27.8827L7.85466 27.6465C9.28393 27.1318 10.4283 26.1231 11.1212 24.7676C11.6221 23.7875 11.7768 22.9959 11.7035 21.7883C11.5667 19.5359 10.2391 17.7001 8.09242 16.7951C7.29962 16.4608 7.17969 16.4415 5.87145 16.4383C4.55094 16.4349 4.4507 16.4508 3.65049 16.7916C1.49757 17.7082 0.163445 19.5529 0.0365485 21.7883C-0.0321547 22.9971 0.124612 23.7949 0.621687 24.7676C1.31458 26.1231 2.45897 27.1318 3.88824 27.6465L4.54386 27.8827V30.4112C4.54386 32.5383 4.57638 33.0557 4.74908 33.6708C5.29118 35.6019 6.81239 36.9967 8.8393 37.421C9.41338 37.5412 10.7038 37.576 14.6391 37.5775L19.7006 37.5793V39V40.4206H14.6318C11.4689 40.4206 9.31613 40.4652 8.90657 40.5391C7.41855 40.8075 5.82432 41.9521 5.1748 43.2182C4.63137 44.2774 4.54386 44.8863 4.54386 47.6069V50.1173L3.88824 50.3535C-0.179297 51.8184 -1.32125 56.9133 1.73842 59.9447C2.81289 61.0093 4.32115 61.6211 5.87145 61.6211C8.06752 61.6211 10.1197 60.3743 11.103 58.4427C12.6975 55.31 11.1895 51.5546 7.85466 50.3535L7.19905 50.1173L7.20149 47.6458C7.2037 45.3962 7.22417 45.1302 7.42928 44.6826C7.70708 44.0763 8.11333 43.6427 8.6926 43.3338C9.12562 43.103 9.24875 43.0973 14.4179 43.0649L19.7006 43.0317V48.4107C19.7006 51.8844 19.7445 54.0443 19.8246 54.5089C20.1648 56.4809 21.6361 57.9768 23.6535 58.4017C24.2502 58.5272 25.5167 58.5587 29.8789 58.5563L35.3552 58.5532L35.3845 63.3928C35.4038 66.5727 35.3725 68.4301 35.2931 68.8086C35.1306 69.5851 34.6169 70.2346 33.8687 70.6094L33.2688 70.9099H30.7589H28.249L28.0099 70.2623C26.5269 66.2445 21.369 65.1165 18.3 68.1388C16.2014 70.2055 16.0372 73.5938 17.9242 75.8973C18.9464 77.1452 20.3898 77.8784 22.0239 77.9798C23.2239 78.0544 24.0932 77.8934 25.0663 77.4164C26.4582 76.7342 27.4832 75.6073 28.0099 74.1803L28.249 73.5327L30.8064 73.5313C33.5409 73.5299 33.9702 73.4719 35.1317 72.9467C35.9392 72.5815 37.0394 71.4978 37.4515 70.6614C38.0229 69.5017 38.0576 69.101 38.0618 63.6155L38.0657 58.5612H39.5039H40.9422V63.568C40.9422 66.6922 40.9873 68.8187 41.0621 69.2233C41.3338 70.6931 42.4926 72.2679 43.7744 72.9094C44.8466 73.4462 45.4631 73.5327 48.2174 73.5327H50.7589L50.9943 74.1703C51.5248 75.6076 52.5218 76.7133 53.9125 77.4069C54.8972 77.8979 55.705 78.0527 56.9287 77.9849C58.1066 77.9196 58.9155 77.6469 59.8981 76.9837C62.8726 74.976 63.2545 70.698 60.689 68.1262C57.6838 65.1135 52.4747 66.2617 50.998 70.2623L50.7589 70.9099L48.2568 70.9075C45.9793 70.9053 45.71 70.8851 45.2569 70.6825C44.6431 70.4081 44.2041 70.0068 43.8914 69.4346C43.6578 69.0069 43.6519 68.8853 43.6192 63.7794L43.5855 58.5612H49.0311C54.8203 58.5612 55.5039 58.5143 56.5136 58.0485C57.8765 57.4196 58.9566 55.95 59.1887 54.4086C59.2475 54.0179 59.2948 51.682 59.2938 49.2177C59.2928 46.7535 59.2955 44.3534 59.2997 43.8845L59.3073 43.0317L64.59 43.0649C69.3303 43.0946 69.9083 43.1173 70.219 43.2853C70.8471 43.6249 71.2837 44.0648 71.547 44.6235C71.7953 45.1503 71.8067 45.2826 71.8077 47.652L71.8088 50.1297L71.394 50.2625C69.4632 50.8803 67.9424 52.4616 67.4376 54.3761C66.4805 58.0059 69.3242 61.6211 73.1364 61.6211C76.3296 61.6211 79 59.0295 79 55.9304C79 54.8771 78.8304 54.1287 78.3953 53.2611C77.7059 51.8869 76.5647 50.8739 75.1197 50.3535L74.464 50.1173V47.6069C74.464 44.8863 74.3765 44.2774 73.8331 43.2182C73.1836 41.9521 71.5893 40.8075 70.1013 40.5391C69.6918 40.4652 67.5389 40.4206 64.3761 40.4206H59.3073V39V37.5793H64.3761C67.5389 37.5793 69.6918 37.5348 70.1013 37.4609C72.1025 37.0998 73.7776 35.547 74.299 33.5695C74.4223 33.1017 74.464 32.303 74.464 30.4069V27.8703L74.8789 27.7375C76.8355 27.1114 78.3402 25.5292 78.8505 23.5614C79.0917 22.6314 79.0071 21.038 78.6702 20.1666C77.142 16.2135 72.0068 15.1027 68.9982 18.0745C65.9484 21.087 67.0961 26.1853 71.1532 27.6465L71.8088 27.8827L71.8077 30.3542C71.8067 32.7124 71.7949 32.8507 71.5487 33.3728C71.4068 33.6738 71.1093 34.0773 70.8876 34.2697C70.1253 34.9308 69.8784 34.9566 64.321 34.9566H59.3073L59.3064 29.5745C59.306 26.3744 59.2589 23.9085 59.1906 23.492C59.1273 23.1067 58.9416 22.5165 58.778 22.1806C58.4166 21.4383 57.341 20.3496 56.6313 20.0078C55.5424 19.4835 55.0011 19.4427 49.0964 19.4406L43.5873 19.4388L43.6201 14.2206C43.652 9.11383 43.6578 8.99319 43.8914 8.56535C44.2041 7.99316 44.6431 7.59188 45.2569 7.31748C45.71 7.11487 45.9793 7.09465 48.2568 7.09247L50.7589 7.09006L50.998 7.73766C52.4819 11.7579 57.6384 12.8791 60.7062 9.84874C62.3576 8.21762 62.8677 5.6998 61.9753 3.58489C61.0859 1.47709 59.1968 0.140693 56.9287 0.0151296C55.705 -0.0527337 54.8972 0.102116 53.9125 0.593114C52.5402 1.27754 51.519 2.40794 50.998 3.81973L50.7589 4.46733H48.2174C45.4631 4.46733 44.8466 4.55377 43.7744 5.09056C42.4926 5.73214 41.3338 7.30688 41.0621 8.7767C40.9873 9.18126 40.9422 11.3077 40.9422 14.432V19.4388H39.5039H38.0657V14.432C38.0657 11.3077 38.0206 9.18126 37.9458 8.7767C37.6741 7.30688 36.5153 5.73214 35.2335 5.09056C34.1612 4.55377 33.5448 4.46733 30.7905 4.46733H28.249L28.0136 3.82968C27.3406 2.00644 25.8209 0.634094 23.9386 0.149872C23.1477 -0.0536086 21.7151 -0.0490183 20.93 0.159598ZM21.4577 2.76048C19.711 3.37693 18.8268 5.20159 19.4675 6.86713C19.9524 8.12768 20.9368 8.83757 22.3218 8.92532C23.064 8.97242 23.1929 8.9474 23.8458 8.62983C24.6861 8.22134 25.2609 7.60893 25.5157 6.85107C26.2373 4.70512 24.7269 2.59699 22.4802 2.61437C22.138 2.61699 21.6778 2.68278 21.4577 2.76048ZM55.3671 2.77971C53.2089 3.56675 52.6111 6.52355 54.2934 8.09107C54.9286 8.68316 55.5174 8.89319 56.5415 8.89319C57.3771 8.89319 57.5479 8.85702 58.0744 8.56907C58.7936 8.17544 59.2397 7.66269 59.5308 6.89467C59.9318 5.83673 59.7173 4.57049 58.9893 3.69865C58.4525 3.05586 57.6312 2.68562 56.6563 2.64693C56.1078 2.62508 55.6666 2.67054 55.3671 2.77971ZM4.70981 19.2236C3.51076 19.68 2.78202 20.6644 2.68865 21.9541C2.62238 22.8693 2.84995 23.6032 3.39526 24.2325C4.92499 25.9978 7.67168 25.67 8.76562 23.5914C8.9777 23.1886 9.0245 22.9316 9.0245 22.1708C9.0245 21.3466 8.98766 21.1763 8.69824 20.6601C7.92071 19.2738 6.20324 18.6551 4.70981 19.2236ZM71.9748 19.2236C71.181 19.5257 70.6567 20.0005 70.2678 20.7692C69.7205 21.851 69.823 23.0755 70.5429 24.0542C71.035 24.7233 71.6669 25.1296 72.4694 25.2928C74.0749 25.6197 75.5954 24.7767 76.1783 23.2366C76.4353 22.5575 76.3652 21.4312 76.0248 20.773C75.2698 19.3122 73.5104 18.6392 71.9748 19.2236ZM23.8904 22.2315C23.2681 22.422 22.6396 23.0658 22.4705 23.6859C22.3882 23.9875 22.361 28.7472 22.3816 39.2372C22.4089 53.2219 22.4252 54.3793 22.5991 54.6929C22.9112 55.2556 23.5033 55.6893 24.1466 55.8263C24.5764 55.9178 28.807 55.9423 39.8912 55.9176C56.6185 55.8804 55.3216 55.9373 56.0025 55.2106C56.6353 54.5352 56.594 55.5743 56.631 39.3825C56.656 28.4339 56.6312 24.255 56.5385 23.8304C56.3999 23.195 55.9607 22.6101 55.3911 22.3018C55.0734 22.1299 53.9106 22.1146 39.7252 22.0955C26.6869 22.0779 24.3262 22.0981 23.8904 22.2315ZM34.0128 30.4673C33.0849 31.0261 32.4975 32.2943 30.8957 37.1969C30.3458 38.8798 29.4377 41.6555 28.8775 43.3651C27.9959 46.0556 27.872 46.5253 27.9562 46.8585C28.066 47.2933 28.6352 47.7424 29.0764 47.7424C29.4747 47.7424 30.0752 47.4291 30.3067 47.1006C30.4654 46.8751 31.0769 45.0614 31.4994 43.5625C31.5491 43.3862 31.7941 43.3712 34.6306 43.3712H37.7078L38.1241 45.0378C38.353 45.9544 38.6088 46.839 38.6926 47.0038C38.9405 47.4918 39.315 47.6684 39.9694 47.6063C40.4344 47.5621 40.6002 47.4875 40.8527 47.2084C41.2551 46.7635 41.2532 46.3902 40.8415 44.9721C40.3643 43.3284 40.3437 43.1826 40.5452 42.8789C40.8184 42.467 40.7706 41.8072 40.4395 41.4184C40.2847 41.2366 40.066 41.0592 39.9536 41.0239C39.7024 40.9452 39.782 41.1533 38.2812 36.6505C37.0139 32.8479 36.6129 31.8239 36.1093 31.104C35.5456 30.2982 34.7131 30.0453 34.0128 30.4673ZM44.0952 30.4713C43.3042 30.5081 42.5488 30.5977 42.4167 30.6704C41.5242 31.1611 41.4609 32.5298 42.3128 32.9169C42.5796 33.0381 42.9908 33.0604 44.1399 33.0163L45.6227 32.9593L45.5484 34.6957C45.5075 35.6505 45.4264 37.7597 45.3683 39.3825C45.3101 41.0053 45.2302 42.9563 45.1907 43.718L45.1188 45.1029L43.6965 45.1386C42.3109 45.1735 42.2662 45.1822 41.9677 45.4775C41.7122 45.7304 41.6626 45.8705 41.6694 46.3217C41.6748 46.694 41.7438 46.9353 41.8903 47.0953C42.3655 47.6138 42.5011 47.632 46.4643 47.7067L50.222 47.7775L50.6158 47.3885C50.9497 47.0587 51.0098 46.9249 51.0098 46.5114C51.0098 45.9713 50.7179 45.4987 50.2836 45.3357C50.1435 45.283 49.5206 45.2313 48.8991 45.2207L47.7694 45.2015L47.8445 43.3301C47.9872 39.7738 48.1285 35.2258 48.1309 34.1097L48.1333 32.9896H49.2247C50.47 32.9896 50.7843 32.845 51.0105 32.1679C51.2858 31.3437 50.8 30.6648 49.8009 30.4776C49.1792 30.3612 46.5235 30.3582 44.0952 30.4713ZM33.6215 37.4427C33.0956 38.9905 32.6325 40.3673 32.5922 40.5026L32.5191 40.7485H34.6287C35.7889 40.7485 36.7381 40.7162 36.7381 40.6767C36.7381 40.5036 34.7043 34.6288 34.6444 34.6288C34.6077 34.6288 34.1474 35.895 33.6215 37.4427ZM5.20622 52.7032C3.58312 53.0373 2.56828 54.3847 2.68865 56.0459C2.87739 58.6512 5.8615 59.8967 7.94738 58.241C8.85822 57.5179 9.32653 55.9779 8.96697 54.8884C8.43892 53.289 6.84901 52.365 5.20622 52.7032ZM72.4712 52.7C70.8433 53.0436 69.8334 54.3858 69.9536 56.0459C70.1407 58.6282 73.2077 59.9048 75.2422 58.2472C76.1665 57.494 76.5866 55.9493 76.1889 54.7663C75.8533 53.768 74.8368 52.8737 73.8556 52.7133C73.6122 52.6735 73.3383 52.6253 73.2471 52.6061C73.1558 52.587 72.8066 52.6293 72.4712 52.7ZM21.4577 69.2031C20.4522 69.5579 19.849 70.141 19.4711 71.1233C18.7081 73.107 20.0858 75.2124 22.247 75.3652C23.5114 75.4546 24.6063 74.9156 25.2496 73.8873C25.8265 72.9655 25.8277 71.5111 25.2525 70.5841C24.8973 70.0114 24.0601 69.3514 23.4663 69.1757C22.9178 69.0133 21.9582 69.0264 21.4577 69.2031ZM55.5129 69.2032C54.1479 69.7057 53.334 70.8048 53.3175 72.1678C53.3041 73.2696 53.7688 74.1933 54.6558 74.828C55.5955 75.5004 57.0233 75.5711 58.0894 74.9979C60.2863 73.8168 60.2799 70.6223 58.0783 69.4387C57.3764 69.0613 56.1931 68.9527 55.5129 69.2032Z" fill="white"/>
</svg>
