<svg width="78" height="78" viewBox="0 0 78 78" fill="none" xmlns="http://www.w3.org/2000/svg">
<path fill-rule="evenodd" clip-rule="evenodd" d="M8.96533 0.255282C8.58955 0.375336 7.79594 0.918118 7.2018 1.4611C5.27841 3.21905 5.38281 2.2186 5.38281 18.8872C5.38281 30.3782 5.43867 33.5691 5.65012 34.1661C6.05211 35.3011 7.54386 36.841 8.73945 37.3554C9.74126 37.7864 9.96572 37.7978 16.3117 37.7385C22.5678 37.68 22.8869 37.6583 23.6641 37.2382C24.7439 36.6544 25.6813 35.6478 26.1871 34.5287C26.531 33.7684 26.6012 33.1876 26.6049 31.077L26.6094 28.5396L22.1932 24.1196L17.7769 19.6997L22.1932 15.2799C26.0965 11.3732 26.6094 10.7847 26.6094 10.2128C26.6094 9.55021 26.029 8.93349 25.4055 8.93349C25.2397 8.93349 22.792 11.2393 19.9662 14.0574C15.9504 18.0623 14.8281 19.2937 14.8281 19.6961C14.8281 20.0969 15.8635 21.2454 19.5 24.8797L24.1719 29.5486V31.3992C24.1719 32.9851 24.1059 33.3485 23.7108 33.94C22.8091 35.2899 22.5268 35.3407 15.9246 35.3409C10.1278 35.3413 10 35.3323 9.334 34.8836C8.96045 34.6317 8.46706 34.1062 8.23753 33.7156C7.82742 33.0172 7.82031 32.7643 7.82031 18.7497C7.82031 4.60363 7.82356 4.48987 8.24525 3.92068C8.47905 3.60521 8.97244 3.14145 9.34172 2.89017L10.0132 2.43311H39H67.9867L68.6583 2.89017C69.0276 3.14165 69.521 3.60542 69.7548 3.92068C70.1764 4.49008 70.1797 4.6016 70.1797 18.8872C70.1797 33.1728 70.1764 33.2845 69.7548 33.8537C69.521 34.1692 69.0276 34.6329 68.6583 34.8842L67.9867 35.3413H55.3585C41.0768 35.3413 41.2998 35.3204 39.6746 36.8185C38.231 38.1492 37.9167 38.9398 37.8196 41.4862L37.7364 43.6699H20.3032C8.47986 43.6699 2.68613 43.7394 2.29836 43.886C1.52019 44.18 0.617906 45.0565 0.279703 45.8471C0.0509841 46.3816 0 49.1123 0 60.8152C0 70.4352 0.0708897 75.3172 0.216124 75.7015C0.510046 76.4797 1.38653 77.3821 2.17709 77.7203C2.72391 77.9543 8.73641 78 38.9803 78C64.0276 78 75.3053 77.9336 75.7016 77.7839C76.4022 77.5192 77.3287 76.6644 77.7134 75.928C77.9523 75.4707 78 72.9596 78 60.8349C78 48.7103 77.9523 46.1991 77.7134 45.7419C77.3287 45.0055 76.4022 44.1507 75.7016 43.886C75.3137 43.7394 69.5078 43.6699 57.6546 43.6699H40.1796L40.2498 41.7545C40.3258 39.6919 40.545 39.1759 41.7186 38.2994C42.2681 37.8888 42.5447 37.8785 55.5185 37.7789C68.6331 37.6784 68.7655 37.6731 69.5841 37.2349C70.0387 36.9918 70.756 36.4104 71.178 35.943C72.7064 34.2514 72.6172 35.3013 72.6172 18.9888C72.6172 5.33675 72.5926 4.29913 72.2479 3.40573C71.7925 2.2253 70.0643 0.583552 68.9146 0.239235C67.8157 -0.0900498 9.997 -0.0744085 8.96533 0.255282ZM44.017 9.39055C43.1925 10.2303 32.043 28.6636 32.043 29.1872C32.043 29.4635 32.1833 29.8302 32.355 30.0016C32.7423 30.3892 33.6645 30.4073 34.0249 30.0343C34.44 29.6047 45.8317 10.9246 45.9928 10.4097C46.0978 10.0739 46.0015 9.82282 45.6235 9.44479C44.9922 8.81344 44.5969 8.80023 44.017 9.39055ZM51.8422 9.24977C51.5363 9.46388 51.3906 9.77468 51.3906 10.2128C51.3906 10.7847 51.9035 11.3732 55.8068 15.2799L60.2231 19.6997L55.8068 24.1196C51.9425 27.9873 51.3906 28.6187 51.3906 29.1732C51.3906 29.9153 51.7894 30.3136 52.5324 30.3136C53.2974 30.3136 63.1719 20.4593 63.1719 19.6959C63.1719 19.2939 62.049 18.0614 58.0338 14.0574C55.208 11.2393 52.7603 8.93349 52.5945 8.93349C52.429 8.93349 52.0904 9.07589 51.8422 9.24977ZM2.77367 46.4791C2.46777 46.8171 2.4375 48.1098 2.4375 60.8703C2.4375 74.1944 2.45598 74.9066 2.80901 75.2262C3.15169 75.5364 5.95705 75.5624 39.0353 75.5624C73.513 75.5624 74.9032 75.5481 75.2263 75.1908C75.5322 74.8528 75.5625 73.56 75.5625 60.7996C75.5625 47.4754 75.544 46.7633 75.191 46.4437C74.8483 46.1335 72.043 46.1075 38.9647 46.1075C4.48703 46.1075 3.09684 46.1217 2.77367 46.4791ZM6.30602 51.9893C5.78703 52.5084 5.77241 53.2506 6.2725 53.703C6.57414 53.9762 6.96698 54.0359 8.1443 53.9884C9.52392 53.9328 9.65717 53.8877 9.94195 53.379C10.2259 52.8718 10.217 52.786 9.82658 52.2618C9.44857 51.7543 9.26067 51.6875 8.06244 51.6339C6.93347 51.5835 6.65559 51.6398 6.30602 51.9893ZM13.8578 51.9085C13.3215 52.2839 13.2517 53.2368 13.7254 53.7107C14.1487 54.1341 18.21 54.1737 18.7757 53.7601C19.2465 53.4158 19.2502 52.5082 18.783 51.9918C18.4687 51.6446 18.1519 51.5922 16.3654 51.5922C14.833 51.5922 14.1942 51.6729 13.8578 51.9085ZM22.7612 52.132C22.3003 52.718 22.357 53.3404 22.9109 53.7759C23.1233 53.9429 23.9744 54.0299 25.3979 54.0299C27.782 54.0299 28.2344 53.8267 28.2344 52.7558C28.2344 51.8429 27.5933 51.5922 25.2586 51.5922C23.2568 51.5922 23.1713 51.6107 22.7612 52.132ZM31.8906 51.9985C31.4025 52.4866 31.3751 52.9707 31.8006 53.5783C32.0956 53.9996 32.2705 54.0299 34.4098 54.0299C36.3732 54.0299 36.751 53.9764 37.0388 53.6583C37.4908 53.1588 37.4627 52.4925 36.9688 51.9985C36.6141 51.6438 36.2917 51.5922 34.4297 51.5922C32.5676 51.5922 32.2453 51.6438 31.8906 51.9985ZM41.0312 51.9985C40.5243 52.5055 40.509 53.2525 40.9965 53.6937C41.2953 53.964 41.8098 54.0299 43.6256 54.0299C45.7283 54.0299 45.9048 53.9988 46.1994 53.5783C46.6249 52.9707 46.5975 52.4866 46.1094 51.9985C45.7547 51.6438 45.4324 51.5922 43.5703 51.5922C41.7083 51.5922 41.3859 51.6438 41.0312 51.9985ZM50.2172 51.9085C49.6596 52.2989 49.6182 53.224 50.1371 53.6937C50.4339 53.9622 50.9442 54.0299 52.6762 54.0299C54.573 54.0299 54.8945 53.9791 55.25 53.6236C55.7645 53.109 55.7615 52.7966 55.2352 52.1275C54.8295 51.6117 54.7387 51.5922 52.7414 51.5922C51.194 51.5922 50.5542 51.6725 50.2172 51.9085ZM59.3578 51.9085C58.7641 52.3243 58.7275 53.5137 59.2991 53.8196C59.5152 53.9352 60.6513 54.0299 61.8237 54.0299C64.1918 54.0299 64.5938 53.8525 64.5938 52.808C64.5938 51.852 63.9862 51.5922 61.75 51.5922C60.322 51.5922 59.6899 51.6757 59.3578 51.9085ZM68.2648 52.1275C67.7385 52.7966 67.7355 53.109 68.25 53.6236C68.577 53.9506 68.927 54.0299 70.0466 54.0299C71.5977 54.0299 72.1094 53.7138 72.1094 52.7558C72.1094 51.9599 71.4261 51.5922 69.9461 51.5922C68.8265 51.5922 68.6388 51.6519 68.2648 52.1275ZM6.55687 59.7217C6.06064 59.9214 5.78317 60.6844 5.98061 61.3062C6.17561 61.9205 7.1433 62.2134 8.658 62.1169C9.76117 62.0467 10.0766 61.9457 10.3866 61.5628C10.8901 60.941 10.8648 60.6109 10.267 60.0132C9.83207 59.5781 9.59217 59.5162 8.38805 59.5273C7.62897 59.5345 6.80489 59.622 6.55687 59.7217ZM14.326 59.9982C13.7109 60.6133 13.6851 60.9375 14.2009 61.5742C14.5781 62.04 14.6772 62.0538 17.6702 62.0538C20.486 62.0538 20.7764 62.0198 21.0399 61.6595C21.4073 61.1567 21.4075 60.5136 21.0403 60.0104C20.7823 59.6572 20.4447 59.6092 17.796 59.5505C14.8647 59.4853 14.835 59.4892 14.326 59.9982ZM25.1134 59.9357C24.4231 60.4786 24.4231 61.1912 25.1134 61.7342C25.5911 62.1102 25.9236 62.1549 28.211 62.1523C31.0525 62.149 31.6652 61.9723 31.9847 61.0635C32.1624 60.5581 32.1181 60.4287 31.6213 60.0013C31.0856 59.5406 30.9116 59.5146 28.352 59.5146C25.9246 59.5146 25.594 59.5576 25.1134 59.9357ZM35.9531 59.7774C35.5408 59.986 35.4453 60.1849 35.4453 60.8349C35.4453 61.9847 35.8904 62.1494 39 62.1494C42.031 62.1494 42.526 61.9784 42.6166 60.9003C42.7176 59.6966 42.2543 59.5139 39.107 59.5176C37.3823 59.5194 36.284 59.61 35.9531 59.7774ZM46.4049 60.0132C45.8049 60.6131 45.7815 60.9406 46.294 61.5742C46.6627 62.03 46.8221 62.057 49.4981 62.1192C52.1237 62.1799 52.352 62.1549 52.8682 61.7489C53.1726 61.5094 53.4204 61.1143 53.4188 60.8709C53.4109 59.7514 52.7384 59.5146 49.5666 59.5146C47.0098 59.5146 46.8835 59.5345 46.4049 60.0132ZM57.3381 59.7217C56.7883 59.943 56.5423 60.7953 56.8399 61.4484C57.1303 62.0861 57.8628 62.2067 60.9294 62.1222C63.2519 62.0582 63.4368 62.0229 63.7997 61.5742C64.3122 60.9406 64.2889 60.6131 63.6888 60.0132C63.208 59.5322 63.0945 59.515 60.4896 59.5273C59.0044 59.5345 57.5861 59.622 57.3381 59.7217ZM67.8409 59.8822C67.3028 60.318 67.2394 61.2319 67.7144 61.7066C68.1444 62.1366 70.4702 62.2947 71.3016 61.9504C72.3221 61.5276 72.3647 60.085 71.3678 59.7061C70.472 59.3654 68.3481 59.4717 67.8409 59.8822ZM6.23391 68.0036C5.77261 68.5133 5.80105 69.1755 6.30602 69.6805C6.65559 70.0301 6.93347 70.0864 8.06244 70.036C9.26067 69.9824 9.44857 69.9156 9.82658 69.4081C10.217 68.8838 10.2259 68.7981 9.94195 68.2909C9.65575 67.7798 9.52819 67.7375 8.1057 67.6829C6.82419 67.6337 6.52173 67.6855 6.23391 68.0036ZM15.1836 67.8594C14.9555 67.9923 14.8281 68.3136 14.8281 68.7559C14.8281 69.8469 15.35 70.0777 17.8187 70.0777C19.6355 70.0777 19.9589 70.0251 20.3125 69.6714C20.8195 69.1644 20.8347 68.4174 20.3472 67.9762C20.0484 67.7056 19.5427 67.6412 17.7574 67.6461C16.5374 67.6496 15.379 67.7454 15.1836 67.8594ZM26.3362 68.0116C25.8564 68.5417 25.9118 69.3833 26.4515 69.7614C26.8478 70.0391 28.38 70.0777 39 70.0777C52.301 70.0777 52 70.1055 52 68.8788C52 67.5917 52.509 67.64 38.9647 67.64C27.314 67.64 26.6549 67.6593 26.3362 68.0116ZM57.6174 68.0116C57.1655 68.5111 57.1935 69.1774 57.6875 69.6714C58.0415 70.0255 58.3645 70.0777 60.204 70.0777C62.5781 70.0777 63.2227 69.804 63.2227 68.7965C63.2227 67.7562 62.9328 67.64 60.3348 67.64C58.2859 67.64 57.9067 67.6918 57.6174 68.0116ZM68.2998 67.8939C67.8043 68.5133 67.8139 69.0506 68.3296 69.5664C68.7631 69.9999 69.0278 70.0777 70.069 70.0777C71.0261 70.0777 71.3865 69.9881 71.7031 69.6714C72.2101 69.1644 72.2254 68.4174 71.7379 67.9762C71.276 67.558 68.6193 67.4944 68.2998 67.8939Z" fill="white"/>
</svg>
