<svg width="48" height="83" viewBox="0 0 48 83" fill="none" xmlns="http://www.w3.org/2000/svg">
<path fill-rule="evenodd" clip-rule="evenodd" d="M9.46547 0.081521C8.34792 0.251654 7.28324 0.617559 6.0935 1.24013C3.26032 2.72272 1.13399 5.51655 0.294971 8.85871L0 10.034V41.4832V72.9324L0.3001 74.1343C1.32336 78.2317 4.28252 81.4068 8.22431 82.6366L9.20548 82.9428L23.5009 82.9828C37.323 83.0214 37.8387 83.014 39.073 82.7579C43.2742 81.8864 46.5854 78.5683 47.705 74.1077L48 72.9324V41.4832V10.034L47.6999 8.83214C46.6749 4.72772 43.7208 1.56357 39.7565 0.3243L38.7945 0.0235629L24.4603 0.0021957C16.5764 -0.00942247 9.82869 0.0262345 9.46547 0.081521ZM9.79331 2.22728C8.83397 2.37391 7.47892 2.88137 6.55522 3.44011C5.54472 4.0512 4.1113 5.53952 3.48598 6.62669C2.95982 7.54185 2.2681 9.40397 2.38395 9.59426C2.45734 9.71472 45.4819 9.74223 45.6005 9.62177C45.7147 9.50586 45.332 8.27941 44.8958 7.36317C43.7567 4.97037 41.6153 3.14778 39.0575 2.39394C38.332 2.18 37.152 2.15957 24.3945 2.13874C16.7638 2.12632 10.1934 2.16625 9.79331 2.22728ZM17.0826 5.2042C16.6035 5.62272 16.6092 6.30418 17.0954 6.72885L17.4394 7.02932H23.9896C30.4173 7.02932 30.5464 7.02411 30.8864 6.75249C31.3493 6.38284 31.3702 5.60429 30.9286 5.18296C30.6244 4.89291 30.6193 4.89264 24.0317 4.89264H17.4394L17.0826 5.2042ZM2.16986 39.6804V67.5239H24H45.8301V39.6804V11.8368H24H2.16986V39.6804ZM26.6301 30.1711C26.2643 30.3586 26.4256 29.9468 22.231 41.3984C20.8895 45.0609 19.7918 48.2036 19.7918 48.382C19.7918 48.5605 19.9371 48.8541 20.1146 49.0343C20.6108 49.5382 21.4463 49.4318 21.7666 48.8237C21.9244 48.5245 27.5633 33.1848 27.9818 31.9165C28.2118 31.2197 28.2279 31.037 28.0899 30.6985C27.9378 30.3259 27.4781 29.996 27.1171 30.0006C27.03 30.0016 26.811 30.0783 26.6301 30.1711ZM17.3225 32.5414C17.1577 32.6085 16.3292 33.0753 15.4814 33.5784C14.6334 34.0818 12.2663 35.4725 10.2211 36.669C8.17578 37.8654 6.41517 38.9707 6.30878 39.1252C6.00802 39.5611 6.07167 40.0575 6.47671 40.4338C6.83836 40.7697 7.2505 41.0194 12.2959 43.9603C13.7786 44.8244 15.4948 45.8328 16.1096 46.2009C17.4203 46.9857 18.0797 47.0888 18.4908 46.5733C18.7872 46.2017 18.8122 45.654 18.5501 45.2741C18.4459 45.1229 16.4402 43.874 14.0932 42.4987C11.7462 41.1234 9.72414 39.9226 9.59987 39.8303C9.40182 39.6833 9.57462 39.546 10.9992 38.7189C16.226 35.6843 18.4075 34.371 18.5597 34.1675C18.9438 33.654 18.6604 32.7606 18.0445 32.5426C17.8267 32.4654 17.6424 32.4062 17.6352 32.4107C17.6278 32.4154 17.4871 32.4742 17.3225 32.5414ZM29.9648 32.536C29.3531 32.784 29.0675 33.6692 29.4391 34.1659C29.5815 34.3562 36.7694 38.6613 38.185 39.4041C38.4308 39.5332 38.5769 39.6868 38.5138 39.7497C38.4512 39.8122 36.4767 40.984 34.126 42.3539C31.7753 43.7239 29.7188 44.9931 29.5562 45.1746C28.9295 45.873 29.3538 46.8918 30.2654 46.8779C30.6771 46.8715 31.5524 46.4109 34.9151 44.4311C37.1934 43.0897 39.6281 41.6604 40.3255 41.2548C41.9129 40.3318 42.2407 39.7557 41.589 39.0335C41.4264 38.8532 39.5178 37.6676 37.3479 36.3991C29.9992 32.1029 30.4505 32.339 29.9648 32.536ZM2.16986 71.2417C2.16986 75.5636 4.61536 79.0939 8.54795 80.4488L9.6 80.8114H23.8685C37.0776 80.8114 38.2005 80.7939 38.9918 80.5763C40.9468 80.0387 42.8494 78.7451 43.9021 77.2377C45.2789 75.2664 45.8301 73.552 45.8301 71.2417V69.7941H24H2.16986V71.2417ZM23.2465 74.8288C22.9006 74.8969 22.4219 75.4696 22.4219 75.8153C22.4219 76.2299 22.6995 76.7023 23.0343 76.8572C23.4542 77.0514 24.5976 77.0472 24.9621 76.8501C25.6315 76.4881 25.7719 75.7711 25.2822 75.216C25.051 74.9538 24.8282 74.8686 24.263 74.8257C23.8652 74.7957 23.4077 74.797 23.2465 74.8288Z" fill="white"/>
</svg>
